# Blender 3.3.0
# www.blender.org
mtllib dungeon.mtl
o Plane
v -14.520941 -14.520941 -0.000001
v 14.520941 -14.520941 -0.000001
v -14.520941 14.520941 0.000001
v 14.520941 14.520941 0.000001
v -14.520941 14.520941 0.000001
v -14.520941 -14.520941 -0.000001
v 14.520941 -14.520941 -0.000001
v 14.520941 14.520941 0.000001
vn -0.0000 -0.0000 -1.0000
vn -0.0000 -0.0000 1.0000
vt 0.000000 0.000000
vt 1.000000 0.000000
vt 0.000000 1.000000
vt 1.000000 1.000000
vt 0.000000 1.000000
vt 0.000000 0.000000
vt 1.000000 0.000000
vt 1.000000 1.000000
s 0
f 3/3/1 2/2/1 1/1/1
f 7/7/2 5/5/2 6/6/2
f 1/1/2 7/7/2 6/6/2
f 2/2/2 8/8/2 7/7/2
f 3/3/2 6/6/2 5/5/2
f 4/4/2 5/5/2 8/8/2
f 3/3/1 4/4/1 2/2/1
f 7/7/2 8/8/2 5/5/2
f 1/1/2 2/2/2 7/7/2
f 2/2/2 4/4/2 8/8/2
f 3/3/2 1/1/2 6/6/2
f 4/4/2 3/3/2 5/5/2
